<?xml version="1.0" standalone="no"?>
<!DOCTYPE svg PUBLIC "-//W3C//DTD SVG 20010904//EN"
 "http://www.w3.org/TR/2001/REC-SVG-20010904/DTD/svg10.dtd">
<svg version="1.0" xmlns="http://www.w3.org/2000/svg"
 width="512.000000pt" height="512.000000pt" viewBox="0 0 512.000000 512.000000"
 preserveAspectRatio="xMidYMid meet">

<g transform="translate(0.000000,512.000000) scale(0.100000,-0.100000)"
fill="#000000" stroke="none">
<path d="M880 4947 c-49 -16 -133 -102 -148 -153 -18 -60 -18 -4408 0 -4468
16 -55 99 -138 154 -154 32 -9 422 -12 1676 -12 1846 0 1693 -7 1771 80 24 26
49 66 55 88 17 57 17 4407 0 4464 -6 22 -31 62 -55 88 -78 87 76 80 -1777 79
-1166 -1 -1651 -4 -1676 -12z m3332 -175 l23 -23 0 -2189 0 -2189 -23 -23 -23
-23 -1629 0 -1629 0 -23 23 -23 23 -2 2177 c-2 1734 0 2182 10 2202 7 13 24
30 37 37 20 10 358 12 1642 10 l1617 -2 23 -23z"/>
<path d="M1172 4614 c-91 -45 -138 -130 -130 -234 6 -77 46 -144 112 -185 44
-27 58 -30 126 -30 68 0 82 3 126 30 30 19 60 49 79 79 27 44 30 58 30 126 0
68 -3 82 -30 126 -66 106 -202 145 -313 88z"/>
<path d="M1812 4614 c-91 -45 -138 -130 -130 -234 6 -77 46 -144 112 -185 44
-27 58 -30 126 -30 68 0 82 3 126 30 30 19 60 49 79 79 27 44 30 58 30 126 0
68 -3 82 -30 126 -66 106 -202 145 -313 88z m142 -145 c58 -27 55 -115 -5
-139 -63 -26 -125 36 -100 99 19 44 60 60 105 40z"/>
<path d="M2982 4617 c-21 -22 -22 -32 -22 -218 0 -191 0 -196 23 -217 l23 -22
515 0 516 0 21 23 c21 22 22 32 22 218 0 191 0 196 -23 217 l-23 22 -515 0
-516 0 -21 -23z m938 -217 l0 -80 -400 0 -400 0 0 80 0 80 400 0 400 0 0 -80z"/>
<path d="M1062 3977 l-22 -23 0 -515 0 -516 23 -21 23 -22 1475 0 1476 0 21
23 22 23 0 515 0 516 -23 21 -23 22 -1475 0 -1476 0 -21 -23z m2858 -537 l0
-400 -1360 0 -1360 0 0 400 0 400 1360 0 1360 0 0 -400z"/>
<path d="M1062 2697 c-21 -23 -22 -30 -22 -298 0 -275 0 -276 23 -297 23 -21
30 -22 298 -22 275 0 276 0 297 23 21 23 22 30 22 298 0 275 0 276 -23 297
-23 21 -30 22 -298 22 -275 0 -276 0 -297 -23z m458 -297 l0 -160 -160 0 -160
0 0 160 0 160 160 0 160 0 0 -160z"/>
<path d="M1862 2697 c-21 -23 -22 -30 -22 -298 0 -275 0 -276 23 -297 23 -21
30 -22 298 -22 275 0 276 0 297 23 21 23 22 30 22 298 0 275 0 276 -23 297
-23 21 -30 22 -298 22 -275 0 -276 0 -297 -23z m458 -297 l0 -160 -160 0 -160
0 0 160 0 160 160 0 160 0 0 -160z"/>
<path d="M2662 2697 c-21 -23 -22 -30 -22 -298 0 -275 0 -276 23 -297 23 -21
30 -22 298 -22 275 0 276 0 297 23 21 23 22 30 22 298 0 275 0 276 -23 297
-23 21 -30 22 -298 22 -275 0 -276 0 -297 -23z m458 -297 l0 -160 -160 0 -160
0 0 160 0 160 160 0 160 0 0 -160z"/>
<path d="M3670 2711 c-82 -27 -159 -91 -198 -165 -24 -45 -27 -62 -27 -146 0
-86 3 -100 29 -148 34 -60 85 -111 148 -144 36 -19 58 -23 138 -23 80 0 102 4
138 23 63 33 114 84 148 144 26 48 29 62 29 148 0 80 -4 102 -23 138 -34 63
-84 114 -144 147 -43 24 -67 29 -133 32 -44 1 -91 -1 -105 -6z m183 -184 c98
-74 82 -219 -29 -272 -107 -50 -235 43 -221 161 13 121 155 184 250 111z"/>
<path d="M1062 1897 c-21 -23 -22 -30 -22 -298 0 -275 0 -276 23 -297 23 -21
30 -22 298 -22 275 0 276 0 297 23 21 23 22 30 22 298 0 275 0 276 -23 297
-23 21 -30 22 -298 22 -275 0 -276 0 -297 -23z m458 -297 l0 -160 -160 0 -160
0 0 160 0 160 160 0 160 0 0 -160z"/>
<path d="M1862 1897 c-21 -23 -22 -30 -22 -298 0 -275 0 -276 23 -297 23 -21
30 -22 298 -22 275 0 276 0 297 23 21 23 22 30 22 298 0 275 0 276 -23 297
-23 21 -30 22 -298 22 -275 0 -276 0 -297 -23z m458 -297 l0 -160 -160 0 -160
0 0 160 0 160 160 0 160 0 0 -160z"/>
<path d="M2662 1897 c-21 -23 -22 -30 -22 -298 0 -275 0 -276 23 -297 23 -21
30 -22 298 -22 275 0 276 0 297 23 21 23 22 30 22 298 0 275 0 276 -23 297
-23 21 -30 22 -298 22 -275 0 -276 0 -297 -23z m458 -297 l0 -160 -160 0 -160
0 0 160 0 160 160 0 160 0 0 -160z"/>
<path d="M3462 1897 l-22 -23 0 -675 0 -676 23 -21 c23 -21 30 -22 298 -22
275 0 276 0 297 23 l22 23 0 675 0 676 -23 21 c-23 21 -30 22 -298 22 -275 0
-276 0 -297 -23z m458 -697 l0 -560 -160 0 -160 0 0 560 0 560 160 0 160 0 0
-560z"/>
<path d="M1062 1097 c-21 -23 -22 -30 -22 -298 0 -275 0 -276 23 -297 23 -21
30 -22 298 -22 275 0 276 0 297 23 21 23 22 30 22 298 0 275 0 276 -23 297
-23 21 -30 22 -298 22 -275 0 -276 0 -297 -23z m458 -297 l0 -160 -160 0 -160
0 0 160 0 160 160 0 160 0 0 -160z"/>
<path d="M1862 1097 c-21 -23 -22 -30 -22 -298 0 -275 0 -276 23 -297 23 -21
30 -22 298 -22 275 0 276 0 297 23 21 23 22 30 22 298 0 275 0 276 -23 297
-23 21 -30 22 -298 22 -275 0 -276 0 -297 -23z m458 -297 l0 -160 -160 0 -160
0 0 160 0 160 160 0 160 0 0 -160z"/>
<path d="M2662 1097 c-21 -23 -22 -30 -22 -298 0 -275 0 -276 23 -297 23 -21
30 -22 298 -22 275 0 276 0 297 23 21 23 22 30 22 298 0 275 0 276 -23 297
-23 21 -30 22 -298 22 -275 0 -276 0 -297 -23z m458 -297 l0 -160 -160 0 -160
0 0 160 0 160 160 0 160 0 0 -160z"/>
</g>
</svg>
